<svg id="insta" xmlns="http://www.w3.org/2000/svg" width="22.566" height="22.565" viewBox="0 0 22.566 22.565">
  <path id="Path_383" data-name="Path 383" d="M568.783,234.944c3,0,3.372,0,4.566.053a6.22,6.22,0,0,1,2.1.4,3.782,3.782,0,0,1,2.15,2.15,6.06,6.06,0,0,1,.4,2.1c.053,1.195.053,1.54.053,4.566,0,3,0,3.372-.053,4.566a6.214,6.214,0,0,1-.4,2.1,3.782,3.782,0,0,1-2.15,2.15,6.063,6.063,0,0,1-2.1.4c-1.195.053-1.54.053-4.566.053-3,0-3.372,0-4.566-.053a6.218,6.218,0,0,1-2.1-.4,3.782,3.782,0,0,1-2.151-2.15,6.064,6.064,0,0,1-.4-2.1c-.053-1.195-.053-1.54-.053-4.566,0-3,0-3.372.053-4.566a6.218,6.218,0,0,1,.4-2.1,3.782,3.782,0,0,1,2.151-2.15,6.065,6.065,0,0,1,2.1-.4c1.195-.053,1.566-.053,4.566-.053m0-2.044c-3.053,0-3.451,0-4.646.08a7.9,7.9,0,0,0-2.734.531,5.279,5.279,0,0,0-1.991,1.3,5.493,5.493,0,0,0-1.3,1.991,7.9,7.9,0,0,0-.531,2.734c-.053,1.195-.08,1.593-.08,4.646s0,3.451.08,4.646a7.9,7.9,0,0,0,.531,2.735,5.28,5.28,0,0,0,1.3,1.991,5.493,5.493,0,0,0,1.991,1.3,7.9,7.9,0,0,0,2.734.531c1.195.053,1.593.08,4.646.08s3.451,0,4.646-.08a7.9,7.9,0,0,0,2.734-.531,5.28,5.28,0,0,0,1.991-1.3,5.493,5.493,0,0,0,1.3-1.991,7.909,7.909,0,0,0,.531-2.735c.053-1.195.079-1.593.079-4.646s0-3.451-.079-4.646a7.908,7.908,0,0,0-.531-2.734,5.28,5.28,0,0,0-1.3-1.991,5.492,5.492,0,0,0-1.991-1.3,7.9,7.9,0,0,0-2.734-.531c-1.195-.053-1.593-.08-4.646-.08Z" transform="translate(-557.5 -232.901)" fill="#40bee2"/>
  <path id="Path_384" data-name="Path 384" d="M583.988,253.6a5.788,5.788,0,1,0,5.787,5.788A5.784,5.784,0,0,0,583.988,253.6Zm0,9.557a3.77,3.77,0,1,1,3.77-3.77A3.767,3.767,0,0,1,583.988,263.157Z" transform="translate(-572.704 -248.105)" fill="#40bee2"/>
  <circle id="Ellipse_7" data-name="Ellipse 7" cx="1.354" cy="1.354" r="1.354" transform="translate(15.956 3.929)" fill="#40bee2"/>
</svg>
