<svg xmlns="http://www.w3.org/2000/svg" width="22.566" height="22.51" viewBox="0 0 22.566 22.51">
  <g id="linkedin" transform="translate(0)">
    <path id="Path_391" data-name="Path 391" d="M817.98,457.192c.31-.338.563-.7.9-1.014a4.8,4.8,0,0,1,3.521-1.38,7.135,7.135,0,0,1,2.2.282,4.282,4.282,0,0,1,3.071,3.24,14.842,14.842,0,0,1,.423,3.691V469.9c0,.253-.056.31-.31.31h-4.057c-.225,0-.282-.085-.282-.31V462.4a6.011,6.011,0,0,0-.225-1.859,2.091,2.091,0,0,0-2.31-1.634,2.51,2.51,0,0,0-2.648,2.507,8.35,8.35,0,0,0-.084,1.183v7.3c0,.253-.056.31-.31.31h-4.085c-.225,0-.282-.056-.282-.282V455.473c0-.225.085-.282.31-.282H817.7c.225,0,.31.084.282.31Z" transform="translate(-805.527 -447.697)" fill="#40bee2"/>
    <path id="Path_392" data-name="Path 392" d="M791.177,463.622v7.156c0,.254-.056.338-.338.338-1.352-.028-2.7,0-4.057,0-.225,0-.282-.056-.282-.282V456.382c0-.2.056-.282.254-.282h4.113c.254,0,.31.113.31.338Z" transform="translate(-786.134 -448.635)" fill="#40bee2"/>
    <path id="Path_393" data-name="Path 393" d="M790.609,432.276a2.7,2.7,0,1,1-2.7-2.676A2.705,2.705,0,0,1,790.609,432.276Z" transform="translate(-785.2 -429.599)" fill="#40bee2"/>
  </g>
</svg>
