<svg xmlns="http://www.w3.org/2000/svg" width="75.022" height="50.001" viewBox="0 0 75.022 50.001">
  <g id="clutch-logo" transform="translate(3170.084 -10487.1)">
    <path id="Path_124200" data-name="Path 124200" d="M53.727,36.061V33.988H48.355v-1.6l5.813-9h2.019v8.454H57.9v2.145H56.188v2.073Zm-2.65-4.092H53.9V27.417Z" transform="translate(-3168.275 10496.243)" fill="#e52421"/>
    <path id="Path_124201" data-name="Path 124201" d="M58.173,33.828A1.453,1.453,0,0,1,57.1,33.4a1.414,1.414,0,0,1-.433-1.045,1.429,1.429,0,0,1,.433-1.046,1.461,1.461,0,0,1,1.073-.433,1.509,1.509,0,0,1,1.487,1.478,1.493,1.493,0,0,1-1.487,1.469Z" transform="translate(-3165.628 10498.629)" fill="#e52421"/>
    <path id="Path_124202" data-name="Path 124202" d="M67.185,29.248a3.447,3.447,0,0,1,1.622,1.235,3.517,3.517,0,0,1,.622,2.109,3.178,3.178,0,0,1-.622,1.947,3.872,3.872,0,0,1-1.658,1.28,6.085,6.085,0,0,1-2.334.433,5.766,5.766,0,0,1-2.352-.451,3.77,3.77,0,0,1-1.631-1.289,3.234,3.234,0,0,1-.595-1.92,3.513,3.513,0,0,1,.613-2.109,3.423,3.423,0,0,1,1.613-1.235v-.027a2.525,2.525,0,0,1-1.109-1,2.954,2.954,0,0,1-.469-1.64,3.078,3.078,0,0,1,.523-1.8,3.233,3.233,0,0,1,1.406-1.136,5.551,5.551,0,0,1,4.029.018A3.213,3.213,0,0,1,68.249,24.8a3.093,3.093,0,0,1,.514,1.775,3,3,0,0,1-.469,1.631,2.55,2.55,0,0,1-1.109,1.009Zm-2.37-3.9a1.854,1.854,0,0,0-.838.2,1.5,1.5,0,0,0-.577.532,1.39,1.39,0,0,0-.2.73,1.317,1.317,0,0,0,.207.748,1.344,1.344,0,0,0,.568.5,1.793,1.793,0,0,0,.838.18,1.7,1.7,0,0,0,1.172-.4,1.338,1.338,0,0,0,.451-1.037,1.369,1.369,0,0,0-.469-1.045A1.691,1.691,0,0,0,64.815,25.345Zm0,8.76a2.067,2.067,0,0,0,1.469-.541,1.738,1.738,0,0,0,.577-1.3,1.766,1.766,0,0,0-.982-1.613,2.255,2.255,0,0,0-1.063-.243,2.129,2.129,0,0,0-1.478.523,1.737,1.737,0,0,0-.568,1.334,1.682,1.682,0,0,0,.586,1.316A2.119,2.119,0,0,0,64.815,34.106Z" transform="translate(-3164.491 10496.206)" fill="#e52421"/>
    <g id="Group_54304" data-name="Group 54304" transform="translate(-78.286 116.738)">
      <path id="Path_124256" data-name="Path 124256" d="M523.886,263.534A25.863,25.863,0,0,0,541.4,256.91l1.71-1.71L535,247.082l-1.71,2.134a13.609,13.609,0,0,1-9.4,3.633c-8.118,0-14.1-5.767-14.1-14.313s5.767-14.1,14.1-14.1a12.712,12.712,0,0,1,9.4,3.633L535,229.56l7.689-7.689-1.71-1.71c-4.914-4.061-10.681-6.624-17.093-6.624-14.526-.212-25.211,10.257-25.211,24.994A24.817,24.817,0,0,0,523.886,263.534Z" transform="translate(-3590.468 10156.828)" fill="#040404"/>
      <path id="Path_124258" data-name="Path 124258" d="M533.15,257.25a8.33,8.33,0,1,0,8.33-8.33A8.338,8.338,0,0,0,533.15,257.25Z" transform="translate(-3608.702 10138.116)" fill="#e52421"/>
    </g>
  </g>
</svg>
