<svg xmlns="http://www.w3.org/2000/svg" xmlns:xlink="http://www.w3.org/1999/xlink" width="81.931" height="50.101" viewBox="0 0 81.931 50.101">
  <defs>
    <clipPath id="clip-path">
      <rect id="Rectangle_14233" data-name="Rectangle 14233" width="81.931" height="50.1" fill="#fff"/>
    </clipPath>
  </defs>
  <g id="google-logo" clip-path="url(#clip-path)">
    <path id="Path_126686" data-name="Path 126686" d="M11.1,27.008l-1.744,6.51-6.374.135A25.093,25.093,0,0,1,2.8,10.262h0L8.477,11.3l2.486,5.641A14.949,14.949,0,0,0,11.1,27.008Z" transform="translate(0 3.268)" fill="#fbbb00"/>
    <path id="Path_126687" data-name="Path 126687" d="M43.479,15.451a25.039,25.039,0,0,1-8.93,24.214h0L27.4,39.3l-1.012-6.315a14.929,14.929,0,0,0,6.424-7.624H19.418v-9.91Z" transform="translate(6.183 4.92)" fill="#518ef8"/>
    <path id="Path_126688" data-name="Path 126688" d="M40.01,37.273h0A25.057,25.057,0,0,1,2.266,29.61l8.118-6.645a14.9,14.9,0,0,0,21.468,7.628Z" transform="translate(0.721 7.313)" fill="#28b446"/>
    <path id="Path_126689" data-name="Path 126689" d="M40.362,5.767l-8.115,6.644a14.9,14.9,0,0,0-21.962,7.8L2.125,13.53A25.054,25.054,0,0,1,40.362,5.767Z" transform="translate(0.677 0)" fill="#f14336"/>
    <path id="Path_126690" data-name="Path 126690" d="M53.727,36.061V33.988H48.355v-1.6l5.813-9h2.019v8.454H57.9v2.145H56.188v2.073Zm-2.65-4.092H53.9V27.417Z" transform="translate(6.809 9.243)" fill="#ef4335"/>
    <path id="Path_126691" data-name="Path 126691" d="M58.173,33.828A1.453,1.453,0,0,1,57.1,33.4a1.414,1.414,0,0,1-.433-1.045,1.429,1.429,0,0,1,.433-1.046,1.461,1.461,0,0,1,1.073-.433,1.509,1.509,0,0,1,1.487,1.478,1.493,1.493,0,0,1-1.487,1.469Z" transform="translate(9.456 11.629)" fill="#ef4335"/>
    <path id="Path_126692" data-name="Path 126692" d="M67.185,29.248a3.447,3.447,0,0,1,1.622,1.235,3.517,3.517,0,0,1,.622,2.109,3.178,3.178,0,0,1-.622,1.947,3.872,3.872,0,0,1-1.658,1.28,6.085,6.085,0,0,1-2.334.433,5.766,5.766,0,0,1-2.352-.451,3.77,3.77,0,0,1-1.631-1.289,3.234,3.234,0,0,1-.595-1.92,3.513,3.513,0,0,1,.613-2.109,3.423,3.423,0,0,1,1.613-1.235v-.027a2.525,2.525,0,0,1-1.109-1,2.954,2.954,0,0,1-.469-1.64,3.078,3.078,0,0,1,.523-1.8,3.233,3.233,0,0,1,1.406-1.136,5.551,5.551,0,0,1,4.029.018A3.213,3.213,0,0,1,68.249,24.8a3.093,3.093,0,0,1,.514,1.775,3,3,0,0,1-.469,1.631,2.55,2.55,0,0,1-1.109,1.009Zm-2.37-3.9a1.854,1.854,0,0,0-.838.2,1.5,1.5,0,0,0-.577.532,1.39,1.39,0,0,0-.2.73,1.317,1.317,0,0,0,.207.748,1.344,1.344,0,0,0,.568.5,1.793,1.793,0,0,0,.838.18,1.7,1.7,0,0,0,1.172-.4,1.338,1.338,0,0,0,.451-1.037,1.369,1.369,0,0,0-.469-1.045A1.691,1.691,0,0,0,64.815,25.345Zm0,8.76a2.067,2.067,0,0,0,1.469-.541,1.738,1.738,0,0,0,.577-1.3,1.766,1.766,0,0,0-.982-1.613,2.255,2.255,0,0,0-1.063-.243,2.129,2.129,0,0,0-1.478.523,1.737,1.737,0,0,0-.568,1.334,1.682,1.682,0,0,0,.586,1.316A2.119,2.119,0,0,0,64.815,34.106Z" transform="translate(10.593 9.206)" fill="#ef4335"/>
  </g>
</svg>
