<svg xmlns="http://www.w3.org/2000/svg" width="81.984" height="50.101" viewBox="0 0 81.984 50.101">
  <g id="trustpilot-logo" transform="translate(-917.544 -7633)">
    <g id="Group_54302" data-name="Group 54302" transform="translate(917.544 7633)">
      <path id="Path_82316" data-name="Path 82316" d="M52.6,19.147H32.511L26.307,0,20.084,19.147,0,19.128,16.265,30.973,10.042,50.1,26.307,38.275,42.553,50.1l-6.2-19.128Z" fill="#00b67a"/>
      <path id="Path_82317" data-name="Path 82317" d="M31.395,27.823,30,23.492l-10.042,7.3Z" transform="translate(6.355 7.481)" fill="#005128"/>
    </g>
    <g id="Group_54303" data-name="Group 54303" transform="translate(976.42 7663.836)">
      <path id="Path_126762" data-name="Path 126762" d="M55.727,36.061V33.988H50.356v-1.6l5.813-9h2.019v8.454H59.9v2.145H58.188v2.073Zm-2.65-4.092H55.9V27.417Z" transform="translate(-50.356 -23.389)" fill="#00b67a"/>
      <path id="Path_126763" data-name="Path 126763" d="M60.173,33.828A1.453,1.453,0,0,1,59.1,33.4a1.414,1.414,0,0,1-.433-1.045,1.429,1.429,0,0,1,.433-1.046,1.461,1.461,0,0,1,1.073-.433,1.509,1.509,0,0,1,1.487,1.478,1.493,1.493,0,0,1-1.487,1.469Z" transform="translate(-47.709 -21.003)" fill="#00b67a"/>
      <path id="Path_126764" data-name="Path 126764" d="M61.9,23.389h7.886v1.64l-4.407,11.3-2.5-.451,4.155-10.229H61.9Z" transform="translate(-46.679 -23.389)" fill="#00b67a"/>
    </g>
  </g>
</svg>
