<svg xmlns="http://www.w3.org/2000/svg" width="65" height="65" viewBox="0 0 65 65">
  <g id="_1" data-name="1" transform="translate(-809 -3968)">
    <rect id="Rectangle_14436" data-name="Rectangle 14436" width="65" height="65" rx="13" transform="translate(809 3968)" fill="#40bee2"/>
    <g id="feedback" transform="translate(712.531 3918.5)">
      <path id="Path_126947" data-name="Path 126947" d="M315.626,484.181a8.035,8.035,0,0,1-4.363-1.309,1.3,1.3,0,0,0-.762-.253h-.91a.571.571,0,0,1-.571-.571V471.33a.572.572,0,0,1,.588-.571,4.729,4.729,0,0,0,2.331-.749c1.637-1.023,2.706-2.9,3.179-5.568a2.361,2.361,0,0,1,.966-1.747,1.994,1.994,0,0,1,1.9.022,3.866,3.866,0,0,1,1.909,2.191,6.782,6.782,0,0,1-.528,5h3.045a124.848,124.848,0,0,0,2.209,5.615,2.566,2.566,0,0,0-.372,3.575,3.012,3.012,0,0,0-1.02,3.877,2.212,2.212,0,0,1-1.97,1.206Zm-5.464-2.7h.338a2.438,2.438,0,0,1,1.429.468,6.954,6.954,0,0,0,3.739,1.093h5.59a1.07,1.07,0,1,0,0-2.14h-4.5a.571.571,0,0,1,0-1.143h5.321a1.07,1.07,0,1,0,0-2.14h-4.516a.571.571,0,0,1,0-1.143h4.855a1.07,1.07,0,1,0,0-2.14h-3.649a.571.571,0,0,1,0-1.143h3.649a1.07,1.07,0,1,0,0-2.14h-3.95a.571.571,0,0,1-.509-.832c1.013-1.976,1.312-3.679.865-4.923a2.751,2.751,0,0,0-1.292-1.531l-.005,0a1.02,1.02,0,0,0-.852-.086,1.327,1.327,0,0,0-.416.883.346.346,0,0,1-.007.057,11.236,11.236,0,0,1-1.55,4.212,7.013,7.013,0,0,1-2.219,2.194,6.126,6.126,0,0,1-2.316.837Z" transform="translate(-188.521 -381.68)" fill="#fff"/>
      <path id="Path_126948" data-name="Path 126948" d="M183.425,627.539h-6.044a.571.571,0,0,1-.571-.571V613.411a.571.571,0,0,1,.571-.571h6.044a.571.571,0,0,1,.571.571v13.556a.571.571,0,0,1-.571.571Zm-5.472-1.143h4.9V613.983h-4.9Z" transform="translate(-62.355 -525.181)" fill="#fff"/>
      <path id="Path_126949" data-name="Path 126949" d="M334.014,77.358a.565.565,0,0,1-.266-.066l-4.19-2.2-4.19,2.2a.571.571,0,0,1-.829-.6l.8-4.666-3.39-3.3a.571.571,0,0,1,.317-.975l4.687-.681,2.1-4.245a.571.571,0,0,1,1.025,0l2.091,4.245,4.684.681a.571.571,0,0,1,.317.975l-3.39,3.3.8,4.666a.571.571,0,0,1-.563.668Zm-4.456-3.486a.568.568,0,0,1,.266.066l3.431,1.8-.655-3.821a.571.571,0,0,1,.164-.506l2.776-2.706-3.836-.558a.571.571,0,0,1-.43-.312l-1.716-3.474-1.716,3.477a.57.57,0,0,1-.43.312l-3.836.558,2.776,2.706a.571.571,0,0,1,.165.506l-.656,3.821,3.431-1.8A.57.57,0,0,1,329.558,73.872Z" transform="translate(-200.694)" fill="#fff"/>
      <path id="Path_126950" data-name="Path 126950" d="M655.615,247.767a.572.572,0,0,1-.563-.668l.517-3.012-2.188-2.133a.571.571,0,0,1,.316-.976l3.024-.439,1.352-2.74a.571.571,0,0,1,1.025,0l1.352,2.74,3.024.439a.571.571,0,0,1,.317.975l-2.188,2.134.517,3.012a.571.571,0,0,1-.831.6l-2.7-1.42-2.7,1.422A.567.567,0,0,1,655.615,247.767Zm2.971-2.7a.568.568,0,0,1,.266.065l1.946,1.023-.372-2.167a.571.571,0,0,1,.165-.506l1.574-1.535-2.176-.316a.572.572,0,0,1-.43-.313l-.973-1.972-.973,1.972a.571.571,0,0,1-.43.313l-2.176.316,1.573,1.535a.571.571,0,0,1,.165.506l-.372,2.167,1.946-1.023a.57.57,0,0,1,.267-.065Z" transform="translate(-516.974 -166.981)" fill="#fff"/>
      <path id="Path_126951" data-name="Path 126951" d="M119.818,247.767a.567.567,0,0,1-.266-.066l-2.7-1.42-2.7,1.42a.571.571,0,0,1-.829-.6l.515-3.012-2.188-2.133a.571.571,0,0,1,.317-.976l3.024-.439,1.352-2.74a.571.571,0,0,1,1.025,0l1.352,2.74,3.024.439a.571.571,0,0,1,.316.976l-2.188,2.133.517,3.012a.572.572,0,0,1-.563.668Zm-6.549-5.823,1.574,1.535a.571.571,0,0,1,.165.506l-.372,2.167,1.946-1.023a.572.572,0,0,1,.532,0l1.946,1.023-.372-2.167a.571.571,0,0,1,.165-.506l1.574-1.535-2.176-.316a.571.571,0,0,1-.43-.313l-.973-1.972-.973,1.972a.572.572,0,0,1-.43.313Z" transform="translate(0 -166.981)" fill="#fff"/>
    </g>
  </g>
</svg>
