<svg xmlns="http://www.w3.org/2000/svg" width="65" height="65" viewBox="0 0 65 65">
  <g id="_2" data-name="2" transform="translate(-1142 -3969)">
    <rect id="Rectangle_14436" data-name="Rectangle 14436" width="65" height="65" rx="13" transform="translate(1142 3969)" fill="#40bee2"/>
    <path id="expert" d="M48,30.616V25.384a.645.645,0,0,0-.543-.637l-3.2-.512a16.509,16.509,0,0,0-2.1-5.065l1.9-2.627a.645.645,0,0,0-.066-.835l-3.7-3.7a.645.645,0,0,0-.835-.066l-2.627,1.9a16.513,16.513,0,0,0-5.065-2.1l-.512-3.2A.645.645,0,0,0,30.616,8H25.384a.645.645,0,0,0-.637.543l-.512,3.2a16.51,16.51,0,0,0-5.065,2.1l-2.627-1.9a.645.645,0,0,0-.835.066l-3.7,3.7a.645.645,0,0,0-.066.835l1.9,2.627a16.507,16.507,0,0,0-2.1,5.065l-3.2.512A.645.645,0,0,0,8,25.384v5.232a.645.645,0,0,0,.543.637l3.2.512a16.51,16.51,0,0,0,2.1,5.065l-1.9,2.627a.645.645,0,0,0,.066.835l3.7,3.7a.645.645,0,0,0,.835.066l2.627-1.9a16.507,16.507,0,0,0,5.065,2.1l.512,3.2a.645.645,0,0,0,.637.543h5.232a.645.645,0,0,0,.637-.543l.46-2.871A9.155,9.155,0,1,0,44.586,31.713l2.871-.46A.645.645,0,0,0,48,30.616Zm-8.476-.909q-.339-.025-.684-.025a9.1,9.1,0,0,0-3.877.862v-1.02c0-1.524-1.154-2.685-3.167-3.184a16.3,16.3,0,0,0-2.1-.377,4.659,4.659,0,0,0,1.793-3.828A3.292,3.292,0,0,0,28,18.53a3.292,3.292,0,0,0-3.489,3.6A4.662,4.662,0,0,0,26.3,25.957a15.162,15.162,0,0,0-2.1.384c-2.039.524-3.162,1.655-3.162,3.183v5.74a.645.645,0,0,0,.645.645h8.482a9.122,9.122,0,0,0-.481,2.932q0,.345.025.684a11.643,11.643,0,1,1,9.817-9.817Zm-8.077.491a.645.645,0,0,0-.645.645v3.611q-.045.082-.088.164H25.2V30.843a.645.645,0,1,0-1.29,0v3.775H22.326V29.524c0-1.132,1.193-1.676,2.193-1.933a14.075,14.075,0,0,1,6.967,0c.817.2,2.188.723,2.188,1.932v1.759a9.233,9.233,0,0,0-1.581,1.372V30.843A.645.645,0,0,0,31.448,30.2ZM28,25.226c-1.212,0-2.2-1.387-2.2-3.092A2.037,2.037,0,0,1,28,19.82a2.037,2.037,0,0,1,2.2,2.314C30.2,23.839,29.212,25.226,28,25.226ZM46.71,38.841a7.869,7.869,0,1,1-7.869-7.869A7.878,7.878,0,0,1,46.71,38.841Zm0-8.775-3.093.5a.645.645,0,0,0-.4.235,9.093,9.093,0,0,0-2.414-.9A12.934,12.934,0,1,0,29.894,40.8a9.1,9.1,0,0,0,.9,2.414.644.644,0,0,0-.235.4l-.5,3.093H25.934l-.5-3.093a.645.645,0,0,0-.509-.53A15.244,15.244,0,0,1,19.5,40.838a.645.645,0,0,0-.735.015l-2.539,1.838-2.922-2.922,1.838-2.539a.645.645,0,0,0,.015-.735,15.242,15.242,0,0,1-2.249-5.425.645.645,0,0,0-.53-.509l-3.093-.5V25.934l3.093-.5a.645.645,0,0,0,.53-.509A15.245,15.245,0,0,1,15.163,19.5a.645.645,0,0,0-.015-.735l-1.838-2.539,2.922-2.922,2.539,1.838a.645.645,0,0,0,.735.015,15.245,15.245,0,0,1,5.425-2.249.645.645,0,0,0,.509-.53l.5-3.093h4.132l.5,3.093a.645.645,0,0,0,.509.53A15.249,15.249,0,0,1,36.5,15.163a.645.645,0,0,0,.735-.015l2.539-1.838,2.922,2.922L40.853,18.77a.645.645,0,0,0-.015.735,15.244,15.244,0,0,1,2.249,5.425.645.645,0,0,0,.53.509l3.093.5Zm-5.272,5.223L37.583,39.2l-1.34-1.34a1.9,1.9,0,1,0-2.684,2.684l2.687,2.687a1.9,1.9,0,0,0,2.684,0c1.37-1.37,4.168-4.234,5.2-5.273a1.895,1.895,0,1,0-2.689-2.67Zm1.773,1.761c-1.033,1.043-3.828,3.9-5.193,5.269a.608.608,0,0,1-.859,0l-2.687-2.687h0a.608.608,0,0,1,.859-.859l1.8,1.8a.645.645,0,0,0,.456.189h0a.645.645,0,0,0,.457-.192L42.355,36.2a.6.6,0,1,1,.856.853Z" transform="translate(1147 3974)" fill="#fff"/>
  </g>
</svg>
