<svg xmlns="http://www.w3.org/2000/svg" width="65" height="65" viewBox="0 0 65 65">
  <g id="_3" data-name="3" transform="translate(-809 -4249)">
    <rect id="Rectangle_14436" data-name="Rectangle 14436" width="65" height="65" rx="13" transform="translate(809 4249)" fill="#40bee2"/>
    <g id="Group_54564" data-name="Group 54564" transform="translate(-16257 -728.915)">
      <path id="path2626" d="M-56.193-6.535a.789.789,0,0,1-.537-.211l-2.755-2.549a.792.792,0,0,1-.254-.572.792.792,0,0,1,.241-.578l2.755-2.666a.792.792,0,0,1,1.119.018.792.792,0,0,1-.018,1.119L-57.8-9.889l2.141,1.981a.792.792,0,0,1,.043,1.119A.79.79,0,0,1-56.193-6.535Z" transform="translate(17143.412 5014.248)" fill="#fff"/>
      <path id="path2630" d="M-12.541-94.37a.79.79,0,0,1-.581-.254.792.792,0,0,1,.043-1.119l2.141-1.981-2.154-2.084a.792.792,0,0,1-.018-1.119.792.792,0,0,1,1.119-.018l2.755,2.666a.792.792,0,0,1,.241.578.792.792,0,0,1-.254.572L-12-94.581A.789.789,0,0,1-12.541-94.37Z" transform="translate(17121.855 5102.083)" fill="#fff"/>
      <path id="path2634" d="M15.063-11.75h-27.6a.792.792,0,0,1-.792-.792.792.792,0,0,1,.792-.792h27.6a.792.792,0,0,1,.792.792A.792.792,0,0,1,15.063-11.75Z" transform="translate(17097.006 5016.914)" fill="#fff"/>
      <g id="g2644" transform="translate(17082.789 5012.345)">
        <path id="path2646" d="M-126.706-63.593a4.29,4.29,0,0,1-4.285-4.285,4.29,4.29,0,0,1,4.285-4.285,4.29,4.29,0,0,1,4.285,4.285A4.29,4.29,0,0,1-126.706-63.593Zm0-6.986a2.7,2.7,0,0,0-2.7,2.7,2.7,2.7,0,0,0,2.7,2.7,2.7,2.7,0,0,0,2.7-2.7A2.7,2.7,0,0,0-126.706-70.579Z" transform="translate(130.99 72.162)" fill="#fff"/>
      </g>
      <g id="g2648" transform="translate(17105.176 5012.345)">
        <path id="path2650" d="M-126.706-63.593a4.29,4.29,0,0,1-4.285-4.285,4.29,4.29,0,0,1,4.285-4.285,4.29,4.29,0,0,1,4.285,4.285A4.29,4.29,0,0,1-126.706-63.593Zm0-6.986a2.7,2.7,0,0,0-2.7,2.7,2.7,2.7,0,0,0,2.7,2.7,2.7,2.7,0,0,0,2.7-2.7A2.7,2.7,0,0,0-126.706-70.579Z" transform="translate(130.99 72.162)" fill="#fff"/>
      </g>
      <g id="g2652" transform="translate(17089.131 5013.816)">
        <path id="path2654" d="M-196.24-75.809h-4.791a.792.792,0,0,1-.792-.792.792.792,0,0,1,.792-.792h3.534a4.292,4.292,0,0,1-.179-1.23,4.292,4.292,0,0,1,.179-1.23h-14.175a4.283,4.283,0,0,1,.179,1.23,4.284,4.284,0,0,1-.179,1.23h3.641a.792.792,0,0,1,.792.792.792.792,0,0,1-.792.792h-4.9a.792.792,0,0,1-.7-.429.792.792,0,0,1,.058-.822,2.683,2.683,0,0,0,.5-1.563,2.683,2.683,0,0,0-.5-1.563.792.792,0,0,1-.058-.822.792.792,0,0,1,.7-.429h16.689a.792.792,0,0,1,.7.429.792.792,0,0,1-.058.822,2.682,2.682,0,0,0-.5,1.563,2.682,2.682,0,0,0,.5,1.563.792.792,0,0,1,.058.822A.792.792,0,0,1-196.24-75.809Z" transform="translate(213.721 81.436)" fill="#fff"/>
      </g>
      <g id="g2656" transform="translate(17112.162 5015.838)">
        <path id="path2658" d="M-7.752-11.75h-4.789a.792.792,0,0,1-.792-.792.792.792,0,0,1,.792-.792h4.789a.792.792,0,0,1,.792.792A.792.792,0,0,1-7.752-11.75Z" transform="translate(13.333 13.333)" fill="#fff"/>
      </g>
      <g id="g2660" transform="translate(17078 5015.838)">
        <path id="path2662" d="M-7.752-11.75h-4.789a.792.792,0,0,1-.792-.792.792.792,0,0,1,.792-.792h4.789a.792.792,0,0,1,.792.792A.792.792,0,0,1-7.752-11.75Z" transform="translate(13.333 13.333)" fill="#fff"/>
      </g>
      <g id="g2664" transform="translate(17098.346 5018.652)">
        <path id="path2666" fill="#fff"/>
      </g>
    </g>
  </g>
</svg>
