<svg xmlns="http://www.w3.org/2000/svg" xmlns:xlink="http://www.w3.org/1999/xlink" width="65" height="65" viewBox="0 0 65 65">
  <defs>
    <clipPath id="clip-path">
      <path id="path1773" d="M0-682.665H40v40H0Z" transform="translate(0 682.665)" fill="#fff"/>
    </clipPath>
  </defs>
  <g id="_4" data-name="4" transform="translate(-1142 -4249)">
    <rect id="Rectangle_14436" data-name="Rectangle 14436" width="65" height="65" rx="13" transform="translate(1142 4249)" fill="#40bee2"/>
    <g id="g1767" transform="translate(1155 4944.665)">
      <g id="g1769" transform="translate(0 -682.665)">
        <g id="g1771" clip-path="url(#clip-path)">
          <g id="g1777" transform="translate(0 3.025)">
            <path id="path1779" d="M-602.552-315.521a18.509,18.509,0,0,1,18.488,18.488,18.75,18.75,0,0,1-.127,2.175.586.586,0,0,1-.65.514.586.586,0,0,1-.514-.65,17.578,17.578,0,0,0,.119-2.039,17.335,17.335,0,0,0-17.316-17.316,17.314,17.314,0,0,0-11.279,4.177.586.586,0,0,1-.826-.063.586.586,0,0,1,.063-.826A18.486,18.486,0,0,1-602.552-315.521Zm-13.137,5.741a.584.584,0,0,1,.4.156.586.586,0,0,1,.032.828,17.26,17.26,0,0,0-4.609,11.763,17.385,17.385,0,0,0,7.129,14l.025.019.026.018a17.189,17.189,0,0,0,10.136,3.275A17.244,17.244,0,0,0-585.7-293.042a.586.586,0,0,1,.7-.436.586.586,0,0,1,.436.7,18.411,18.411,0,0,1-17.994,14.228,18.354,18.354,0,0,1-10.823-3.5l-.026-.02-.028-.019a18.56,18.56,0,0,1-7.611-14.951,18.429,18.429,0,0,1,4.921-12.559A.584.584,0,0,1-615.689-309.78Z" transform="translate(621.04 315.521)" fill="#fff"/>
          </g>
          <g id="g1781" transform="translate(4.921 7.946)">
            <path id="path1783" d="M-217.971-425.943a13.488,13.488,0,0,1-11.591-6.523.586.586,0,0,1,.2-.805.586.586,0,0,1,.805.2,12.324,12.324,0,0,0,10.591,5.962,12.482,12.482,0,0,0,11.571-7.95.586.586,0,0,1,.757-.336.586.586,0,0,1,.336.757A13.661,13.661,0,0,1-217.971-425.943Zm-12.016-8.07a.586.586,0,0,1-.542-.364,13.46,13.46,0,0,1-1.008-5.133,13.582,13.582,0,0,1,13.567-13.567,13.515,13.515,0,0,1,9.242,3.643l.024.024.025.022a13.62,13.62,0,0,1,4.275,9.877,13.609,13.609,0,0,1-.293,2.813.586.586,0,0,1-.695.452.586.586,0,0,1-.452-.695,12.434,12.434,0,0,0,.268-2.57,12.278,12.278,0,0,0-3.907-9.024l-.022-.022-.023-.02a12.347,12.347,0,0,0-8.443-3.329,12.409,12.409,0,0,0-12.395,12.395,12.293,12.293,0,0,0,.921,4.688.586.586,0,0,1-.32.764A.585.585,0,0,1-229.988-434.013Z" transform="translate(231.538 453.076)" fill="#fff"/>
          </g>
          <g id="g1785" transform="translate(9.842 12.867)">
            <path id="path1787" d="M-138.91-267.821a8.656,8.656,0,0,1-8.646-8.646,8.656,8.656,0,0,1,8.646-8.646,8.656,8.656,0,0,1,8.646,8.646A8.656,8.656,0,0,1-138.91-267.821Zm0-16.12a7.482,7.482,0,0,0-7.474,7.474,7.482,7.482,0,0,0,7.474,7.474,7.482,7.482,0,0,0,7.474-7.474A7.483,7.483,0,0,0-138.91-283.941Z" transform="translate(147.556 285.113)" fill="#fff"/>
          </g>
          <g id="g1789" transform="translate(14.762 17.787)">
            <path id="path1791" d="M-59.849-109.7a3.729,3.729,0,0,1-3.725-3.725,3.729,3.729,0,0,1,3.725-3.725,3.729,3.729,0,0,1,3.725,3.725A3.729,3.729,0,0,1-59.849-109.7Zm0-6.278a2.556,2.556,0,0,0-2.553,2.553,2.556,2.556,0,0,0,2.553,2.553,2.556,2.556,0,0,0,2.553-2.553A2.556,2.556,0,0,0-59.849-115.977Z" transform="translate(63.574 117.149)" fill="#fff"/>
          </g>
          <g id="g1793" transform="translate(17.902 1.364)">
            <path id="path1795" d="M-9.414-323.129a.584.584,0,0,1-.414-.172.586.586,0,0,1,0-.829L9.734-343.692a.586.586,0,0,1,.829,0,.586.586,0,0,1,0,.829L-9-323.3A.584.584,0,0,1-9.414-323.129Z" transform="translate(10 343.863)" fill="#fff"/>
          </g>
          <g id="g1797" transform="translate(30.327 0)">
            <path id="path1799" d="M-76.23-11.393h0a.866.866,0,0,1,.863.809l.213,3.385a.586.586,0,0,1-.17.451L-79.952-2.12a.586.586,0,0,1-.621.134.586.586,0,0,1-.378-.511l-.227-3.624a1.418,1.418,0,0,1,.412-1.091l3.927-3.927A.856.856,0,0,1-76.23-11.393Zm-.11,4-.153-2.439-3.444,3.444a.246.246,0,0,0-.071.189l.146,2.328Z" transform="translate(81.181 11.393)" fill="#fff"/>
          </g>
          <g id="g1801" transform="translate(30.556 3.646)">
            <path id="path1803" d="M-144.578-21.693h.037l3.385.212a.865.865,0,0,1,.753.556.865.865,0,0,1-.2.916l-3.927,3.927a1.408,1.408,0,0,1-1,.415l-.089,0-3.624-.227a.586.586,0,0,1-.511-.378.586.586,0,0,1,.134-.621l4.627-4.627A.586.586,0,0,1-144.578-21.693Zm2.666,1.34-2.439-.153-3.522,3.522,2.328.146a.256.256,0,0,0,.189-.071Z" transform="translate(149.791 21.693)" fill="#fff"/>
          </g>
        </g>
      </g>
    </g>
  </g>
</svg>
