<svg xmlns="http://www.w3.org/2000/svg" width="65" height="65" viewBox="0 0 65 65">
  <g id="_6" data-name="6" transform="translate(-1142 -4457)">
    <rect id="Rectangle_14437" data-name="Rectangle 14437" width="65" height="65" rx="13" transform="translate(1142 4457)" fill="#40bee2"/>
    <g id="Group_54569" data-name="Group 54569" transform="translate(-11250.908 -311.026)">
      <g id="g3094" transform="translate(12417.324 4793.7)">
        <path id="path3096" d="M-51.623-230.689a.586.586,0,0,1-.586-.586v-1.383a2.216,2.216,0,0,0-1.04-1.885,3.382,3.382,0,0,1-1.587-2.876v-7.666a.586.586,0,0,1,.586-.586.586.586,0,0,1,.586.586v7.666a2.216,2.216,0,0,0,1.04,1.885,3.382,3.382,0,0,1,1.587,2.876v1.383A.586.586,0,0,1-51.623-230.689Z" transform="translate(54.836 245.671)" fill="#fff"/>
      </g>
      <g id="g3098" transform="translate(12419.952 4810.19)">
        <path id="path3100" d="M-9.414-164.091a.586.586,0,0,1-.586-.586v-9.665a.586.586,0,0,1,.586-.586.586.586,0,0,1,.586.586v9.665A.586.586,0,0,1-9.414-164.091Z" transform="translate(10 174.928)" fill="#fff"/>
      </g>
      <g id="g3102" transform="translate(12417.324 4789.885)">
        <path id="path3104" d="M-36.642-134.61a2.283,2.283,0,0,1-2.281-2.281v-4.44a2.283,2.283,0,0,1,2.281-2.281,2.283,2.283,0,0,1,2.281,2.281v4.44A2.283,2.283,0,0,1-36.642-134.61Zm0-7.829a1.11,1.11,0,0,0-1.109,1.109v4.44a1.11,1.11,0,0,0,1.109,1.109,1.11,1.11,0,0,0,1.109-1.109v-4.44A1.11,1.11,0,0,0-36.642-142.44Z" transform="translate(38.923 143.612)" fill="#fff"/>
      </g>
      <g id="g3106" transform="translate(12420.714 4788.784)">
        <path id="path3108" d="M-36.643-134.61a2.283,2.283,0,0,1-2.281-2.281v-4.44a2.283,2.283,0,0,1,2.281-2.281,2.283,2.283,0,0,1,2.281,2.281v4.44A2.283,2.283,0,0,1-36.643-134.61Zm0-7.829a1.11,1.11,0,0,0-1.109,1.109v4.44a1.11,1.11,0,0,0,1.109,1.109h0a1.11,1.11,0,0,0,1.109-1.109v-4.44A1.11,1.11,0,0,0-36.643-142.44Z" transform="translate(38.924 143.612)" fill="#fff"/>
      </g>
      <g id="g3110" transform="translate(12424.104 4787.366)">
        <path id="path3112" d="M-63.528-146.465a2.46,2.46,0,0,1-2.458-2.458v-5.5a2.46,2.46,0,0,1,2.458-2.458,2.46,2.46,0,0,1,2.458,2.458v3.59a.586.586,0,0,1-.586.586.586.586,0,0,1-.586-.586v-3.59a1.287,1.287,0,0,0-1.286-1.286,1.287,1.287,0,0,0-1.286,1.286v5.5a1.287,1.287,0,0,0,1.286,1.286,1.287,1.287,0,0,0,.968-.44.586.586,0,0,1,.827-.055.586.586,0,0,1,.055.827A2.459,2.459,0,0,1-63.528-146.465Z" transform="translate(65.985 156.884)" fill="#fff"/>
      </g>
      <g id="g3114" transform="translate(12427.847 4786.47)">
        <path id="path3116" d="M-5.671-110.635a.586.586,0,0,1-.586-.586v-4.8a1.287,1.287,0,0,0-1.286-1.286,1.287,1.287,0,0,0-1.286,1.286v4.485a.586.586,0,0,1-.586.586.586.586,0,0,1-.586-.586v-4.485a2.46,2.46,0,0,1,2.458-2.458,2.46,2.46,0,0,1,2.458,2.458v4.8A.586.586,0,0,1-5.671-110.635Z" transform="translate(10 118.482)" fill="#fff"/>
      </g>
      <g id="g3118" transform="translate(12425.976 4792.829)">
        <path id="path3120" d="M-85.4-240.887a.586.586,0,0,1-.586-.586v-.966a5.031,5.031,0,0,1,1.427-3.52,3.866,3.866,0,0,0,1.1-2.7v-4.281a2.389,2.389,0,0,0-2.387-2.387h-3.5a.191.191,0,0,0-.191.191,2.108,2.108,0,0,0,2.105,2.105h1.408a.586.586,0,0,1,.553.393.586.586,0,0,1-.189.652,4.274,4.274,0,0,0-1.44,3.778.586.586,0,0,1-.495.665.586.586,0,0,1-.665-.495,5.244,5.244,0,0,1,.928-3.821h-.1a3.281,3.281,0,0,1-3.277-3.277,1.365,1.365,0,0,1,1.363-1.363h3.5a3.563,3.563,0,0,1,3.559,3.559v4.281a5.032,5.032,0,0,1-1.427,3.52,3.865,3.865,0,0,0-1.1,2.7v.966A.586.586,0,0,1-85.4-240.887Z" transform="translate(90.717 256.503)" fill="#fff"/>
      </g>
      <g id="g3122" transform="translate(12425.276 4781.026)">
        <path id="path3124" d="M-9.414-45.01A.586.586,0,0,1-10-45.6v-2.252a.586.586,0,0,1,.586-.586.586.586,0,0,1,.586.586V-45.6A.586.586,0,0,1-9.414-45.01Z" transform="translate(10 48.435)" fill="#fff"/>
      </g>
      <g id="g3126" transform="translate(12417.592 4783.085)">
        <path id="path3128" d="M-27.506-40.164a.586.586,0,0,1-.508-.293l-1.126-1.95a.586.586,0,0,1,.214-.8.586.586,0,0,1,.8.214L-27-41.043a.586.586,0,0,1-.214.8A.583.583,0,0,1-27.506-40.164Z" transform="translate(29.219 43.287)" fill="#fff"/>
      </g>
      <g id="g3130" transform="translate(12411.967 4788.71)">
        <path id="path3132" d="M-40.751-26.921A.583.583,0,0,1-41.043-27l-1.95-1.126a.586.586,0,0,1-.214-.8.586.586,0,0,1,.8-.214l1.95,1.126a.586.586,0,0,1,.214.8A.586.586,0,0,1-40.751-26.921Z" transform="translate(43.287 29.219)" fill="#fff"/>
      </g>
      <g id="g3134" transform="translate(12436.635 4802.952)">
        <path id="path3136" d="M-40.751-26.921A.583.583,0,0,1-41.043-27l-1.95-1.126a.586.586,0,0,1-.214-.8.586.586,0,0,1,.8-.214l1.95,1.126a.586.586,0,0,1,.214.8A.586.586,0,0,1-40.751-26.921Z" transform="translate(43.287 29.219)" fill="#fff"/>
      </g>
      <g id="g3138" transform="translate(12409.908 4796.395)">
        <path id="path3140" d="M-45.6-8.828h-2.252a.586.586,0,0,1-.586-.586A.586.586,0,0,1-47.849-10H-45.6a.586.586,0,0,1,.586.586A.586.586,0,0,1-45.6-8.828Z" transform="translate(48.435 10)" fill="#fff"/>
      </g>
      <g id="g3142" transform="translate(12438.392 4796.395)">
        <path id="path3144" d="M-45.6-8.828h-2.252a.586.586,0,0,1-.586-.586A.586.586,0,0,1-47.849-10H-45.6a.586.586,0,0,1,.586.586A.586.586,0,0,1-45.6-8.828Z" transform="translate(48.435 10)" fill="#fff"/>
      </g>
      <g id="g3146" transform="translate(12411.967 4802.952)">
        <path id="path3148" d="M-42.7-7.7A.586.586,0,0,1-43.208-8a.586.586,0,0,1,.214-.8l1.95-1.126a.586.586,0,0,1,.8.214.586.586,0,0,1-.214.8l-1.95,1.126A.583.583,0,0,1-42.7-7.7Z" transform="translate(43.287 10.002)" fill="#fff"/>
      </g>
      <g id="g3150" transform="translate(12436.635 4788.71)">
        <path id="path3152" d="M-42.7-7.7A.586.586,0,0,1-43.208-8a.586.586,0,0,1,.214-.8l1.95-1.126a.586.586,0,0,1,.8.214.586.586,0,0,1-.214.8l-1.95,1.126A.583.583,0,0,1-42.7-7.7Z" transform="translate(43.287 10.002)" fill="#fff"/>
      </g>
      <g id="g3154" transform="translate(12431.834 4783.085)">
        <path id="path3156" d="M-28.633-6.879a.583.583,0,0,1-.292-.079.586.586,0,0,1-.214-.8l1.126-1.95a.586.586,0,0,1,.8-.214.586.586,0,0,1,.214.8l-1.126,1.95A.586.586,0,0,1-28.633-6.879Z" transform="translate(29.219 10.002)" fill="#fff"/>
      </g>
      <g id="g3158" transform="translate(12424.694 4807.274)">
        <path id="path3160" d="M-159.9-198.907a6.884,6.884,0,0,1-6.876-6.876,6.884,6.884,0,0,1,6.876-6.876,6.884,6.884,0,0,1,6.876,6.876,6.805,6.805,0,0,1-1.484,4.268.586.586,0,0,1-.823.1.586.586,0,0,1-.1-.823,5.644,5.644,0,0,0,1.231-3.54,5.711,5.711,0,0,0-5.7-5.7,5.711,5.711,0,0,0-5.7,5.7,5.711,5.711,0,0,0,5.7,5.7,5.639,5.639,0,0,0,2.626-.639.586.586,0,0,1,.79.25.586.586,0,0,1-.25.79A6.894,6.894,0,0,1-159.9-198.907Z" transform="translate(166.776 212.659)" fill="#fff"/>
      </g>
      <g id="g3162" transform="translate(12428.285 4811.211)">
        <path id="path3164" d="M-7.6-41.544H-7.6a.586.586,0,0,1-.468-.242L-9.889-44.3a.586.586,0,0,1,.131-.818.586.586,0,0,1,.818.131l1.356,1.873,3.1-4.078a.586.586,0,0,1,.821-.111.586.586,0,0,1,.111.821L-7.13-41.775A.586.586,0,0,1-7.6-41.544Z" transform="translate(10.001 47.422)" fill="#fff"/>
      </g>
    </g>
  </g>
</svg>
